<svg width="200" height="200" viewBox="0 0 200 200" xmlns="http://www.w3.org/2000/svg">
  <!-- Dreamcatcher outer circle -->
  <circle cx="100" cy="100" r="80" fill="none" stroke="url(#gradient)" stroke-width="4"/>
  
  <!-- Gradient definition -->
  <defs>
    <linearGradient id="gradient" x1="0%" y1="0%" x2="100%" y2="100%">
      <stop offset="0%" style="stop-color:#9B6B9E"/>
      <stop offset="100%" style="stop-color:#7EB5D6"/>
    </linearGradient>
    
    <!-- Clock hand gradient -->
    <linearGradient id="handGradient" x1="0%" y1="0%" x2="100%" y2="100%">
      <stop offset="0%" style="stop-color:#BE93C5"/>
      <stop offset="100%" style="stop-color:#7BC6CC"/>
    </linearGradient>
  </defs>

  <!-- Dreamcatcher web pattern -->
  <path d="M100,20 
           C140,60 140,140 100,180
           C60,140 60,60 100,20
           M40,100 
           C80,60 120,60 160,100
           C120,140 80,140 40,100"
        fill="none" 
        stroke="url(#gradient)" 
        stroke-width="2"
        opacity="0.6"/>

  <!-- Clock hands -->
  <line x1="100" y1="100" x2="100" y2="40" 
        stroke="url(#handGradient)" 
        stroke-width="3" 
        stroke-linecap="round">
    <animateTransform 
      attributeName="transform"
      attributeType="XML"
      type="rotate"
      from="0 100 100"
      to="360 100 100"
      dur="12s"
      repeatCount="indefinite"/>
  </line>
  
  <line x1="100" y1="100" x2="140" y2="100" 
        stroke="url(#handGradient)" 
        stroke-width="3" 
        stroke-linecap="round">
    <animateTransform 
      attributeName="transform"
      attributeType="XML"
      type="rotate"
      from="0 100 100"
      to="360 100 100"
      dur="6s"
      repeatCount="indefinite"/>
  </line>

  <!-- Center dot -->
  <circle cx="100" cy="100" r="5" fill="url(#handGradient)"/>
  
  <!-- Decorative feathers -->
  <path d="M80,160 C70,180 60,170 80,160" 
        fill="none" 
        stroke="url(#gradient)" 
        stroke-width="2"/>
  <path d="M120,160 C130,180 140,170 120,160" 
        fill="none" 
        stroke="url(#gradient)" 
        stroke-width="2"/>
</svg>